<?xml version="1.0" encoding="utf-8"?>
<!-- Generator: Adobe Illustrator 21.0.1, SVG Export Plug-In . SVG Version: 6.00 Build 0)  -->
<svg version="1.1" id="Calque_1" xmlns="http://www.w3.org/2000/svg" xmlns:xlink="http://www.w3.org/1999/xlink" x="0px" y="0px"
	 viewBox="0 0 24 24" style="enable-background:new 0 0 24 24;" xml:space="preserve">
<g>
	<circle cx="12" cy="12" r="5.6"/>
	<path d="M24,11h-2.1c-0.5-4.7-4.2-8.5-8.9-8.9V0h-2v2.1C6.3,2.5,2.5,6.3,2.1,11H0v2h2.1c0.5,4.7,4.2,8.5,8.9,8.9V24h2v-2.1
		c4.7-0.5,8.5-4.2,8.9-8.9H24V11z M12,20c-4.4,0-8-3.6-8-8s3.6-8,8-8s8,3.6,8,8S16.4,20,12,20z"/>
</g>
</svg>
