<?xml version="1.0" encoding="utf-8"?>
<!-- Generator: Adobe Illustrator 21.0.1, SVG Export Plug-In . SVG Version: 6.00 Build 0)  -->
<svg version="1.1" id="Calque_1" xmlns="http://www.w3.org/2000/svg" xmlns:xlink="http://www.w3.org/1999/xlink" x="0px" y="0px"
	 viewBox="0 0 24 24" style="enable-background:new 0 0 24 24;" xml:space="preserve">
<path d="M19.5,1.7c-0.9,0.2-1.7,0.9-1.9,1.9c-0.1,0.7,0,1.3,0.3,1.8c0,0,0,0.1,0,0.1L14.7,9c0,0-0.1,0.1-0.2,0
	c-0.6-0.4-1.2-0.6-2-0.6c-0.4,0-0.8,0.1-1.2,0.2c0,0-0.1,0-0.1,0l-2-3.9c0,0,0-0.1,0-0.1c0.6-0.5,0.9-1.3,0.8-2.1
	c-0.1-1.1-1-1.9-2.1-2.1C6.7,0.2,5.4,1.3,5.5,2.8C5.5,3.7,6.1,4.6,7,5c0.5,0.2,0.9,0.2,1.4,0.1c0,0,0.1,0,0.1,0.1l2,3.9
	c0,0,0,0.1,0,0.1C9.6,9.8,9,10.7,8.8,11.7c0,0.2,0,0.6,0,0.8c0,0.1,0,0.1-0.1,0.1l-2.5,0.7c-0.1,0-0.1,0-0.1-0.1
	c-0.5-0.8-1.4-1.3-2.4-1.2c-1,0.1-1.9,1.1-2,2.1c-0.2,1.4,0.9,2.6,2.4,2.6c0.9,0,1.8-0.6,2.2-1.3c0.1-0.3,0.2-0.9,0.2-1.1
	c0-0.1,0-0.1,0.1-0.1l2.4-0.7c0.1,0,0.1,0,0.2,0.1c0.5,1.5,1.9,2.5,3.6,2.5c0.2,0,0.3,0,0.5,0c0.1,0,0.1,0,0.1,0.1l0.8,2.8
	c0,0.1,0,0.1-0.1,0.2c-0.8,0.5-1.3,1.4-1.1,2.4c0.2,1,1,1.9,2.1,2c1.4,0.2,2.6-0.9,2.6-2.4c0-1-0.7-1.9-1.6-2.3
	c-0.2-0.1-0.7-0.1-0.9-0.1c-0.1,0-0.1,0-0.1-0.1L14.2,16c0-0.1,0-0.1,0.1-0.2c1.3-0.6,2.2-1.9,2.2-3.5c0-1-0.4-1.9-0.9-2.5
	c0,0,0-0.1,0-0.2l3.2-3.5c0,0,0.1,0,0.1,0c0.5,0.3,1.1,0.4,1.7,0.2c0.9-0.2,1.6-0.9,1.8-1.9C22.6,2.8,21.2,1.4,19.5,1.7z"/>
</svg>
