<svg xmlns="http://www.w3.org/2000/svg" viewBox="0 0 24 24"><path d="M 22,20.038333 16.787685,14.8675 C 17.767987,13.53 18.3476,11.885 18.3476,10.108333 18.3476,5.6375 14.680919,2 10.17338,2 5.6666807,2 2,5.6375 2,10.108333 c 0,4.471667 3.6666807,8.108334 8.17338,8.108334 1.708597,0 3.295392,-0.5225 4.609181,-1.415 L 20.022596,22 Z m -17.6025873,-9.93 c 0,-3.1599997 2.5914571,-5.730833 5.7768073,-5.730833 3.18535,0 5.776807,2.5708333 5.776807,5.730833 0,3.16 -2.591457,5.730834 -5.776807,5.730834 -3.1861903,0 -5.7768073,-2.570834 -5.7768073,-5.730834 z"/></svg>
