<?xml version="1.0" encoding="UTF-8" standalone="no"?>
<svg
   xmlns:dc="http://purl.org/dc/elements/1.1/"
   xmlns:cc="http://creativecommons.org/ns#"
   xmlns:rdf="http://www.w3.org/1999/02/22-rdf-syntax-ns#"
   xmlns:svg="http://www.w3.org/2000/svg"
   xmlns="http://www.w3.org/2000/svg"
   xmlns:sodipodi="http://sodipodi.sourceforge.net/DTD/sodipodi-0.dtd"
   xmlns:inkscape="http://www.inkscape.org/namespaces/inkscape"
   width="24"
   height="24"
   viewBox="0 0 24 24"
   version="1.1"
   id="svg4"
   sodipodi:docname="search.svg"
   inkscape:version="0.92.2 (5c3e80d, 2017-08-06)">
  <metadata
     id="metadata10">
    <rdf:RDF>
      <cc:Work
         rdf:about="">
        <dc:format>image/svg+xml</dc:format>
        <dc:type
           rdf:resource="http://purl.org/dc/dcmitype/StillImage" />
        <dc:title></dc:title>
      </cc:Work>
    </rdf:RDF>
  </metadata>
  <defs
     id="defs8" />
  <sodipodi:namedview
     pagecolor="#ffffff"
     bordercolor="#666666"
     borderopacity="1"
     objecttolerance="10"
     gridtolerance="10"
     guidetolerance="10"
     inkscape:pageopacity="0"
     inkscape:pageshadow="2"
     inkscape:window-width="1920"
     inkscape:window-height="1018"
     id="namedview6"
     showgrid="false"
     inkscape:zoom="9.8333333"
     inkscape:cx="-16.576271"
     inkscape:cy="12"
     inkscape:window-x="-8"
     inkscape:window-y="-1"
     inkscape:window-maximized="1"
     inkscape:current-layer="svg4" />
  <path
     d="M 22,20.038333 16.787685,14.8675 C 17.767987,13.53 18.3476,11.885 18.3476,10.108333 18.3476,5.6375 14.680919,2 10.17338,2 5.6666807,2 2,5.6375 2,10.108333 c 0,4.471667 3.6666807,8.108334 8.17338,8.108334 1.708597,0 3.295392,-0.5225 4.609181,-1.415 L 20.022596,22 Z m -17.6025873,-9.93 c 0,-3.1599997 2.5914571,-5.730833 5.7768073,-5.730833 3.18535,0 5.776807,2.5708333 5.776807,5.730833 0,3.16 -2.591457,5.730834 -5.776807,5.730834 -3.1861903,0 -5.7768073,-2.570834 -5.7768073,-5.730834 z"
     id="path2"
     inkscape:connector-curvature="0"
     style="stroke-width:0.83666927" />
</svg>
