<?xml version="1.0" encoding="utf-8"?>
<!-- Generator: Adobe Illustrator 21.0.1, SVG Export Plug-In . SVG Version: 6.00 Build 0)  -->
<svg version="1.1" id="Calque_1" xmlns="http://www.w3.org/2000/svg" xmlns:xlink="http://www.w3.org/1999/xlink" x="0px" y="0px"
	 viewBox="0 0 24 24" style="enable-background:new 0 0 24 24;" xml:space="preserve">
<g>
	<path d="M17.8,17c0,1.1,0.9,2,2,2c1.1,0,2-0.9,2-2s-0.9-2-2-2C18.7,15,17.8,15.9,17.8,17z M19.1,17c0-0.4,0.3-0.7,0.7-0.7
		c0.4,0,0.7,0.3,0.7,0.7c0,0.4-0.3,0.7-0.7,0.7C19.5,17.7,19.2,17.4,19.1,17z"/>
	<rect x="5.5" y="9.2" width="1.3" height="2.8"/>
	<path d="M10.2,17c0,1.1,0.9,2,2,2s2-0.9,2-2s-0.9-2-2-2S10.2,15.9,10.2,17z M11.5,17c0-0.4,0.3-0.7,0.7-0.7s0.7,0.3,0.7,0.7
		c0,0.4-0.3,0.7-0.7,0.7C11.8,17.7,11.5,17.4,11.5,17z"/>
	<path d="M2.5,17L2.5,17c0,1.1,0.9,2,2,2s1.9-0.8,2-1.8l0,0v-0.3c0-1-0.9-1.8-1.9-1.8l0,0c-0.1,0-0.2,0-0.3,0l0,0
		c-0.1,0-0.2,0.1-0.3,0.1l0,0c-0.1,0-0.2,0-0.3,0.1l0,0c-0.1,0.1-0.2,0.1-0.3,0.2l0,0c-0.1,0.1-0.1,0.2-0.2,0.3l0,0
		c-0.2,0.3-0.4,0.6-0.4,1L2.5,17z M4.1,17c0-0.4,0.3-0.7,0.7-0.7c0.4,0,0.7,0.3,0.7,0.7c0,0.4-0.3,0.7-0.7,0.7S4.2,17.4,4.1,17z"/>
	<path d="M8.6,6v6.9h15.1V6.4c0-0.1,0-0.2,0-0.3c0-0.9-0.5-1.1-0.9-1.1H9.7C9.3,5,8.6,5.1,8.6,6z"/>
	<path d="M23.7,13.6H8.6v2c0,0.8,0.7,0.9,0.9,0.9l0,0c0.3-1.2,1.3-2.1,2.6-2.1s2.3,0.9,2.6,2.1h2.5c0.3-1.2,1.3-2.1,2.6-2.1
		s2.3,0.9,2.6,2.1h0.4c0.3,0,0.9-0.2,0.9-1.1V13.6z"/>
	<path d="M1.3,15.7H0.5c0,0.7,0.5,0.8,0.7,0.8h0.1C1.4,16.5,1.4,15.8,1.3,15.7z"/>
	<path d="M4.8,12.7l-4.4-0.2v2.4h1.5v1.4h0.3c0.1-0.4,0.3-0.7,0.5-1l0,0c0.2-0.3,0.5-0.5,0.8-0.7c0.1,0,0.1,0,0.1,0
		c0-0.1,0.1-0.1,0.1-0.1h0.1h0.1h0.1H4c0.1,0,0.1,0,0.2,0s0.1,0,0.1,0c0.1,0,0.1,0,0.2,0l0,0c0.1,0,0.2,0,0.3,0l0,0l0,0H5
		c0.1,0,0.1,0,0.2,0s0.1,0,0.2,0l0,0c1,0.2,1.9,1,2.1,2.1h0.4v-7c0-0.4-0.4-0.4-0.4-0.4v3.5h-2H4.8L4.8,12.7z"/>
	<path d="M0.8,12h3.9V9.1h-1c-0.1,0-0.5,0.1-0.8,0.5l0,0L0.8,12z"/>
</g>
</svg>
